<?xml version="1.0" encoding="UTF-8"?>
<svg width="197px" height="49px" viewBox="0 0 197 49" version="1.1" xmlns="http://www.w3.org/2000/svg" xmlns:xlink="http://www.w3.org/1999/xlink">
    <!-- Generator: Sketch 42 (36781) - http://www.bohemiancoding.com/sketch -->
    <title>Page 1</title>
    <desc>Created with Sketch.</desc>
    <defs>
        <polygon id="path-1" points="0 0.0326282014 196.962811 0.0326282014 196.962811 48.942302 0 48.942302"></polygon>
    </defs>
    <g id="LMPA-Q" stroke="none" stroke-width="1" fill="none" fill-rule="evenodd">
        <g id="wetting-page-1" transform="translate(-30.000000, -32.000000)">
            <g id="Page-1" transform="translate(128.500000, 56.500000) rotate(-360.000000) translate(-128.500000, -56.500000) translate(30.000000, 32.000000)">
                <g id="Group-3" transform="translate(0.000000, 0.000000)">
                    <mask id="mask-2" fill="white">
                        <use xlink:href="#path-1"></use>
                    </mask>
                    <g id="Clip-2"></g>
                    <path d="M56.1015365,24.0251994 L56.1015365,21.5556525 L55.351515,21.5957345 C55.1033266,19.8883092 54.6338004,18.2252554 53.9460952,16.6259813 C53.7463671,16.1615216 53.5298394,15.7062739 53.2970864,15.2605192 C56.0273743,16.3875985 56.484265,20.1221915 56.484265,20.1221915 L58.9536571,20.1221915 L58.031835,15.2046856 C60.0687461,17.8840657 61.1966859,20.8932437 61.2977705,24.0251994 L56.1015365,24.0251994 Z M53.6630154,38.0077901 C51.0360376,39.938128 47.9493692,41.4101943 44.5829953,42.3696321 C46.4075427,41.4258052 48.0715609,40.2192649 49.545902,38.7689273 C50.6238022,37.708792 51.5689571,36.5485219 52.3744746,35.2999307 L53.6622257,35.2999307 L53.6622257,34.5575688 C53.6622257,34.5575688 53.3300394,34.5574281 52.8756615,34.480569 C53.2731076,33.7938298 53.6305649,33.082971 53.9460952,32.3489771 C54.8282876,30.2973383 55.351874,28.1406423 55.5090289,25.9199557 L56.1015365,25.9518104 L56.1015365,24.9497589 L61.2977705,24.9497589 C61.1388208,29.8743671 58.4420602,34.495758 53.6630154,38.0077901 L53.6630154,38.0077901 Z M45.3720722,38.7017723 C46.1148426,37.6596388 46.7675128,36.5221522 47.3250573,35.2996494 L51.1276455,35.2999307 C48.8061469,38.6358127 45.442573,41.2173081 41.5021422,42.5863565 C42.9368536,41.5990018 44.2358044,40.2959131 45.3720722,38.7017723 L45.3720722,38.7017723 Z M38.2805748,42.9633388 C39.1985201,41.9252135 40.0177501,40.4523034 40.7155781,38.5860969 C41.0941426,37.5734975 41.4270467,36.4720144 41.7115624,35.2995088 L46.186851,35.2996494 C44.302859,39.2051185 41.4289851,42.0765409 38.0824261,43.1791491 C38.1489064,43.1094625 38.214956,43.0378071 38.2805748,42.9633388 L38.2805748,42.9633388 Z M35.4962985,43.6241302 L35.4962985,35.29979 L40.2726152,35.2999307 L40.2726152,34.5575688 C40.2726152,34.5575688 36.9401994,34.5575688 36.9401994,32.1096098 L36.9401994,24.9497589 L41.8689327,24.9497589 C41.8254979,29.9784398 41.07562,34.6818935 39.74587,38.2382268 C38.5731313,41.3748236 37.0465966,43.2967231 35.4962985,43.6241302 L35.4962985,43.6241302 Z M30.3026491,38.2382268 C29.962781,37.328997 29.6608197,36.3448066 29.398847,35.2996494 L34.5522923,35.29979 L34.5522923,43.6241302 C33.002066,43.2967231 31.4754596,41.3748236 30.3026491,38.2382268 L30.3026491,38.2382268 Z M21.5092985,24.9497589 L27.1470595,24.9497589 C27.1760638,28.3688288 27.5269163,31.6470488 28.1609921,34.5371058 C27.9428849,34.5575688 27.8060474,34.5575688 27.8060474,34.5575688 L27.8060474,35.2995088 L28.3370285,35.2995088 C28.6215442,36.4720144 28.9544483,37.5734975 29.3330846,38.5860969 C30.0308408,40.4523034 30.8500708,41.9252135 31.7680161,42.9633388 C31.8336349,43.0378071 31.8997563,43.1094625 31.966093,43.1791491 C26.0815795,41.2403729 21.6580536,33.8328571 21.5092985,24.9497589 L21.5092985,24.9497589 Z M15.5272184,24.9497589 L20.4765562,24.9497589 C20.517191,27.4934929 20.8933864,29.9628289 21.5967424,32.2958156 C22.3194826,34.6931446 23.3555992,36.8482935 24.6764469,38.7017723 C25.8127147,40.2959131 27.1117373,41.5991425 28.5463769,42.5863565 C21.1073295,40.0018373 15.7240748,33.0961207 15.5272184,24.9497589 L15.5272184,24.9497589 Z M16.3855037,38.0077901 C11.6065307,34.495758 8.90977012,29.8743671 8.75074862,24.9497589 L14.4942606,24.9497589 C14.5522694,27.5127604 15.0923681,29.9997466 16.1024957,32.3489771 C17.1366021,34.7541115 18.6171174,36.9141125 20.5027606,38.7689273 C21.97703,40.2192649 23.6410482,41.4258052 25.4655956,42.3696321 C22.0992216,41.4101943 19.0124815,39.938128 16.3855037,38.0077901 L16.3855037,38.0077901 Z M16.3855037,10.9673089 C19.0124815,9.03683041 22.0992216,7.5647641 25.4655956,6.60532621 C23.6410482,7.54908287 21.97703,8.75569345 20.5027606,10.2059607 C18.6171174,12.0608459 17.1366021,14.2207765 16.1024957,16.6259813 C15.0923681,18.9752118 14.5522694,21.462198 14.4942606,24.0251994 L8.75074862,24.0251994 C8.90977012,19.1006616 11.6065307,14.47913 16.3855037,10.9673089 L16.3855037,10.9673089 Z M24.6764469,10.2733267 C23.3555992,12.1265945 22.3194826,14.2817435 21.5967424,16.6790724 C20.8933864,19.0122701 20.517191,21.4813952 20.4765562,24.0251994 L15.5272184,24.0251994 C15.7240748,15.8787673 21.1073295,8.97312103 28.5464487,6.38860183 C27.1118091,7.37588619 25.8127147,8.67911562 24.6764469,10.2733267 L24.6764469,10.2733267 Z M31.7680161,6.01154921 C30.8500708,7.04988546 30.0308408,8.52265496 29.3330846,10.3889318 C28.9545201,11.4013905 28.621616,12.5028033 28.3371721,13.6750277 L27.8060474,13.6749574 L27.8060474,14.4175302 C27.8060474,14.4175302 27.9428131,14.4175302 28.1609921,14.4378525 C27.5269163,17.3279798 27.1760638,20.6061999 27.1470595,24.0251994 L21.5092985,24.0251994 C21.6580536,15.1421716 26.0815795,7.73451513 31.966093,5.79587961 C31.8997563,5.86542549 31.8336349,5.9372216 31.7680161,6.01154921 L31.7680161,6.01154921 Z M31.1384633,24.0251994 L28.1796582,24.0251994 C28.2085908,20.6652682 28.5531254,17.4507575 29.1750682,14.6264492 C30.0944494,14.8921158 31.1384633,15.4952453 31.1384633,16.8654892 L31.1384633,24.0251994 Z M28.1796582,24.9497589 L31.1384633,24.9497589 L31.1384633,32.1096098 C31.1384633,33.479713 30.0944494,34.0829128 29.1750682,34.3485795 C28.5531254,31.5242712 28.2085908,28.3096198 28.1796582,24.9497589 L28.1796582,24.9497589 Z M34.5522923,5.35082813 L34.5522923,13.675309 L29.3989188,13.6750277 C29.6609633,12.6298704 29.9628528,11.6458208 30.3026491,10.7366613 C31.4754596,7.60006444 33.002066,5.67816493 34.5522923,5.35082813 L34.5522923,5.35082813 Z M39.74587,10.7366613 C41.07562,14.2929946 41.8254979,18.9964482 41.8689327,24.0251994 L36.9401994,24.0251994 L36.9401994,16.8654892 C36.9401994,14.4175302 40.2726152,14.4175302 40.2726152,14.4175302 L40.2726152,13.6755199 L35.4962985,13.675309 L35.4962985,5.35082813 C37.0465966,5.67823525 38.5731313,7.60006444 39.74587,10.7366613 L39.74587,10.7366613 Z M46.186851,13.6751683 L41.7114906,13.6749574 C41.4269031,12.5028033 41.0940708,11.4013905 40.7155781,10.3889318 C40.0177501,8.52265496 39.1985201,7.04988546 38.2805748,6.01154921 C38.214956,5.9372216 38.1489064,5.86542549 38.0824979,5.79587961 C41.4289851,6.89841747 44.302859,9.76969919 46.186851,13.6751683 L46.186851,13.6751683 Z M51.1277891,13.675309 L47.3249855,13.6751683 C46.767441,12.4528765 46.1148426,11.3153196 45.3720722,10.2733267 C44.2358044,8.67911562 42.9367818,7.37588619 41.5021422,6.38860183 C45.4427165,7.75772053 48.8062905,10.3392863 51.1277891,13.675309 L51.1277891,13.675309 Z M50.3298816,21.8644249 L50.3298816,16.8654892 C50.3298816,15.3219783 50.4142384,14.617167 51.8958306,14.8711607 C53.1081273,16.9217447 53.9452337,19.2123288 54.3141779,21.6512868 L50.3298816,21.8644249 Z M50.3298816,25.6431082 L54.4770762,25.8648956 C54.2581794,28.8860279 53.3252293,31.7159618 51.8435653,34.1919782 C51.0642523,33.8684387 50.3298816,33.2587695 50.3298816,32.1096098 L50.3298816,25.6431082 Z M44.5280737,24.9497589 L44.5280737,32.1096098 C44.5280737,33.8340525 42.8744655,34.3435868 41.8970037,34.4942813 C42.5251207,31.6147722 42.8726706,28.3518818 42.9015314,24.9497589 L44.5280737,24.9497589 Z M44.5280737,24.0251994 L42.9015314,24.0251994 C42.8726706,20.6231469 42.5251207,17.3603268 41.8970037,14.4807474 C42.8744655,14.6313715 44.5280737,15.1409762 44.5280737,16.8654892 L44.5280737,24.0251994 Z M53.6630154,10.9673089 C54.8095496,11.8098759 55.8358306,12.7163633 56.736402,13.6755199 L52.3746181,13.675309 C51.5691724,12.4267177 50.623874,11.2663773 49.545902,10.2059607 C48.0715609,8.75576377 46.4075427,7.54908287 44.5829953,6.60532621 C47.9493692,7.5647641 51.0360376,9.03683041 53.6630154,10.9673089 L53.6630154,10.9673089 Z M62.3308,24.0251994 C62.2532636,21.4422273 61.5260722,18.9376612 60.1655948,16.5739449 C58.7805642,14.1676151 56.8013029,12.0090908 54.2828044,10.1582842 C51.7752184,8.31556433 48.8576943,6.86958652 45.6112147,5.86050314 C42.4009188,4.86267086 39.0002996,4.33597855 35.4962985,4.29252117 L35.4962985,0.0326422652 L34.5522923,0.0326422652 L34.5522923,4.29252117 C31.0482913,4.33597855 27.6477439,4.86267086 24.4373762,5.86050314 C21.1908966,6.86958652 18.2733725,8.31556433 15.7657865,10.1582842 C13.247288,12.0090908 11.2679549,14.1676151 9.88299606,16.5739449 C8.52251866,18.9376612 7.79532733,21.4422273 7.71779089,24.0251994 L-2.87172006e-05,24.0251994 L-2.87172006e-05,24.9497589 L7.71779089,24.9497589 C7.79532733,27.5328014 8.52251866,30.0372268 9.88299606,32.4010134 C11.2679549,34.8074136 13.247288,36.9658676 15.7657865,38.8167445 C18.2733725,40.6594644 21.1908966,42.1053718 24.4373762,43.1144552 C27.6477439,44.1122172 31.0482913,44.6389798 34.5522923,44.6825075 L34.5522923,48.9423161 L35.4962985,48.9423161 L35.4962985,44.6825075 C39.0002996,44.6389798 42.4009188,44.1122172 45.6112147,43.1144552 C48.8576943,42.1053718 51.7752184,40.6594644 54.2828044,38.8167445 C56.8013029,36.9658676 58.7805642,34.8074136 60.1655948,32.4010134 C61.5260722,30.0372268 62.2532636,27.5328014 62.3308,24.9497589 L70.0485478,24.9497589 L70.0485478,24.0251994 L62.3308,24.0251994 Z" id="Fill-1" fill="#FFFFFF" mask="url(#mask-2)"></path>
                </g>
                <path d="M84.0613,24.7911887 L84.0613,25.1112826 L77.7980784,25.1112826 L77.7980784,24.7911887 L78.1955962,24.7911887 C78.5430026,24.7911887 78.8227799,24.7306437 79.0347847,24.6094833 C79.1879191,24.5287567 79.3055879,24.3902978 79.3881498,24.194177 C79.4529071,24.0557181 79.4853575,23.6923074 79.4853575,23.103945 L79.4853575,15.3858283 C79.4853575,14.7859336 79.4529071,14.4110608 79.3881498,14.2609992 C79.3232489,14.1110783 79.1922985,13.979792 78.9950831,13.8672809 C78.7976524,13.7548402 78.5313003,13.6985847 78.1955962,13.6985847 L77.7980784,13.6985847 L77.7980784,13.3784205 L84.0613,13.3784205 L84.0613,13.6985847 L83.6637821,13.6985847 C83.3162322,13.6985847 83.0365984,13.7591297 82.8245219,13.88029 C82.6713156,13.9611573 82.5507034,14.0996162 82.462398,14.2955964 C82.3974971,14.4340553 82.3651903,14.7974659 82.3651903,15.3858283 L82.3651903,23.103945 C82.3651903,23.7039804 82.3990048,24.0788531 82.4667774,24.2287741 C82.5344064,24.3788357 82.6669363,24.5099814 82.8642952,24.6224924 C83.0615824,24.7349331 83.328078,24.7911887 83.6637821,24.7911887 L84.0613,24.7911887 Z" id="Fill-4" fill="#FFFFFF"></path>
                <path d="M89.198879,13.3784345 L95.1087355,20.6552266 L95.1087355,15.6107942 C95.1087355,14.9071079 95.0056407,14.4311862 94.7995948,14.1830994 C94.5168739,13.8486603 94.042753,13.6870664 93.3773036,13.6985987 L93.3773036,13.3784345 L97.3348929,13.3784345 L97.3348929,13.6985987 C96.8283933,13.7621675 96.488238,13.8443005 96.3145707,13.9452089 C96.1407599,14.0461875 96.0054301,14.210524 95.9082223,14.4383588 C95.8110864,14.6663343 95.7624825,15.0570289 95.7624825,15.6107942 L95.7624825,25.3796355 L95.4621006,25.3796355 L87.3614089,15.6107942 L87.3614089,23.0692916 C87.3614089,23.7442172 87.5189228,24.1999572 87.8340223,24.4364414 C88.1489782,24.6730661 88.5098098,24.7912027 88.9161582,24.7912027 L89.198879,24.7912027 L89.198879,25.1112966 L84.9497384,25.1112966 L84.9497384,24.7912027 C85.6092289,24.7855069 86.0686323,24.6527438 86.3278769,24.3931949 C86.5869778,24.1335757 86.7165642,23.6923215 86.7165642,23.0692916 L86.7165642,14.7888307 L86.4603349,14.4773158 C86.207121,14.1658008 85.9833422,13.9611714 85.7889986,13.8630055 C85.5946549,13.7649803 85.3148776,13.7102014 84.9497384,13.6985987 L84.9497384,13.3784345 L89.198879,13.3784345 Z" id="Fill-6" fill="#FFFFFF"></path>
                <path d="M109.389505,13.3784345 L109.389505,16.553918 L109.071462,16.553918 C108.882862,15.8214711 108.673944,15.2949897 108.444279,14.9748255 C108.214613,14.6546613 107.89937,14.3994722 107.499052,14.2091176 C107.27513,14.1052558 106.883499,14.0533601 106.324159,14.0533601 L105.431916,14.0533601 L105.431916,23.1039591 C105.431916,23.7039242 105.46573,24.0787969 105.533431,24.2287882 C105.601204,24.3788498 105.733662,24.5099955 105.930949,24.6224362 C106.128236,24.7349472 106.397604,24.7912027 106.739338,24.7912027 L107.136856,24.7912027 L107.136856,25.1112966 L100.864804,25.1112966 L100.864804,24.7912027 L101.262322,24.7912027 C101.609656,24.7912027 101.889506,24.7305874 102.10151,24.6094974 C102.254501,24.5287707 102.375401,24.3903118 102.463706,24.194191 C102.528392,24.0557321 102.560914,23.6923215 102.560914,23.1039591 L102.560914,14.0533601 L101.695162,14.0533601 C100.888209,14.0533601 100.302234,14.2207203 99.9372385,14.5551593 C99.4248518,15.0224318 99.10085,15.6886377 98.9654484,16.553918 L98.6297443,16.553918 L98.6297443,13.3784345 L109.389505,13.3784345 Z" id="Fill-8" fill="#FFFFFF"></path>
                <path d="M115.189597,14.053339 L115.189597,18.8295733 L115.428094,18.8295733 C116.187807,18.8295733 116.738316,18.5959722 117.080051,18.1286998 C117.421498,17.6614977 117.63939,16.972227 117.733798,16.0607469 L118.06943,16.0607469 L118.06943,22.2040606 L117.733798,22.2040606 C117.663082,21.5349715 117.514327,20.9870428 117.287604,20.5600634 C117.06081,20.1332246 116.797402,19.8462511 116.49702,19.699143 C116.196638,19.5520348 115.760711,19.4784807 115.189597,19.4784807 L115.189597,22.7837737 C115.189597,23.4298684 115.217525,23.8250634 115.273452,23.9692182 C115.329378,24.1134433 115.433837,24.2317908 115.587115,24.3239795 C115.740106,24.4163089 115.987433,24.4623681 116.329168,24.4623681 L117.044729,24.4623681 C118.163551,24.4623681 119.060245,24.2086557 119.734597,23.7009497 C120.408877,23.1934546 120.893192,22.4203631 121.187831,21.3820971 L121.514704,21.3820971 L120.975826,25.1112755 L110.622485,25.1112755 L110.622485,24.7911816 L111.020003,24.7911816 C111.367338,24.7911816 111.647187,24.7306366 111.859192,24.6094763 C112.012183,24.5287496 112.129995,24.3902907 112.212557,24.1941699 C112.277242,24.055711 112.309765,23.6923004 112.309765,23.103938 L112.309765,15.3858213 C112.309765,14.8551911 112.294903,14.5292607 112.26554,14.4081004 C112.206526,14.2062134 112.09776,14.0504559 111.938738,13.940828 C111.714816,13.779445 111.408691,13.6985776 111.020003,13.6985776 L110.622485,13.6985776 L110.622485,13.3784134 L120.648953,13.3784134 L120.648953,16.8481132 L120.313249,16.8481132 C120.142309,16.0002019 119.902449,15.3916578 119.593237,15.0224107 C119.284024,14.6533745 118.846805,14.3821525 118.281435,14.2090965 C117.951546,14.1052347 117.333121,14.053339 116.426375,14.053339 L115.189597,14.053339 Z" id="Fill-10" fill="#FFFFFF"></path>
                <path d="M127.350097,14.0100715 L127.350097,19.1497164 L127.853653,19.1497164 C128.672237,19.1497164 129.284703,19.0761623 129.691052,18.9290541 C130.097472,18.7819459 130.416879,18.5167012 130.649632,18.1330385 C130.882098,17.7494462 130.998474,17.2491237 130.998474,16.6317897 C130.998474,15.7377488 130.784962,15.077309 130.35808,14.6503296 C129.930984,14.2235612 129.243494,14.0100715 128.295324,14.0100715 L127.350097,14.0100715 Z M127.350097,19.7640267 L127.350097,23.0520212 C127.350097,23.6866537 127.389942,24.0859976 127.469417,24.2504044 C127.548964,24.4148111 127.688745,24.5460974 127.888975,24.6441227 C128.089206,24.7422886 128.463176,24.7911605 129.010885,24.7911605 L129.010885,25.1113248 L122.880121,25.1113248 L122.880121,24.7911605 C123.433717,24.7911605 123.809123,24.7407415 124.006553,24.6397629 C124.203697,24.5389249 124.342258,24.4076385 124.421732,24.2460446 C124.501207,24.0846615 124.540909,23.6866537 124.540909,23.0520212 L124.540909,15.4377663 C124.540909,14.8032743 124.501207,14.4037898 124.421732,14.2393831 C124.342258,14.0749763 124.202261,13.9438306 124.002031,13.8456647 C123.8018,13.7476395 123.42783,13.6985565 122.880121,13.6985565 L122.880121,13.3784626 L128.445515,13.3784626 C129.894298,13.3784626 130.954321,13.4766285 131.625729,13.6726087 C132.297066,13.8687998 132.844775,14.2307338 133.268784,14.7585512 C133.692865,15.2863686 133.90487,15.9049683 133.90487,16.6144911 C133.90487,17.4797713 133.586827,18.1950602 132.950813,18.7603579 C132.544465,19.1180727 131.976151,19.3863412 131.245873,19.5650228 L134.125705,23.5365921 C134.502619,24.0500644 134.77055,24.3702286 134.929572,24.4970145 C135.171083,24.6758367 135.450789,24.773862 135.768832,24.7911605 L135.768832,25.1113248 L131.996756,25.1113248 L128.136302,19.7640267 L127.350097,19.7640267 Z" id="Fill-12" fill="#FFFFFF"></path>
                <path d="M140.800358,14.053339 L140.800358,18.8728197 L141.144893,18.8728197 C141.674941,18.8728197 142.107781,18.7949761 142.443485,18.6392187 C142.779117,18.4834612 143.063202,18.2210292 143.296027,17.8518523 C143.528492,17.4827458 143.680191,16.983689 143.750907,16.354893 L144.060048,16.354893 L144.060048,22.247307 L143.750907,22.247307 C143.638982,21.1341509 143.334149,20.4000164 142.836623,20.045255 C142.338882,19.6904937 141.77502,19.5131481 141.144893,19.5131481 L140.800358,19.5131481 L140.800358,23.103938 C140.800358,23.7039734 140.834173,24.0788461 140.902017,24.2287671 C140.969574,24.3788287 141.102104,24.5099744 141.299535,24.6224854 C141.496679,24.7349261 141.763246,24.7911816 142.09895,24.7911816 L142.496468,24.7911816 L142.496468,25.1112755 L136.233246,25.1112755 L136.233246,24.7911816 L136.630764,24.7911816 C136.978242,24.7911816 137.257948,24.7306366 137.469953,24.6094763 C137.623087,24.5287496 137.7409,24.3902907 137.823318,24.1941699 C137.888075,24.055711 137.920526,23.6923004 137.920526,23.103938 L137.920526,15.3858213 C137.920526,14.7859265 137.888075,14.4110538 137.823318,14.2609922 C137.758561,14.1110712 137.627467,13.9797849 137.430323,13.8672739 C137.232892,13.7548332 136.966468,13.6985776 136.630764,13.6985776 L136.233246,13.6985776 L136.233246,13.3784134 L146.339189,13.3784134 L146.339189,16.7443218 L145.976993,16.7443218 C145.894574,15.9540724 145.683934,15.3685227 145.345502,14.9878135 C145.00671,14.6071043 144.516508,14.3389061 143.874535,14.1831486 C143.52117,14.0965854 142.867494,14.053339 141.913437,14.053339 L140.800358,14.053339 Z" id="Fill-14" fill="#FFFFFF"></path>
                <path d="M158.517515,20.9927105 L158.067013,25.1113177 L147.430952,25.1113177 L147.430952,24.7912238 L147.82847,24.7912238 C148.175804,24.7912238 148.455725,24.7306085 148.66773,24.6095185 C148.820721,24.5287918 148.938461,24.3903329 149.021095,24.1941418 C149.085709,24.0557532 149.118231,23.6923426 149.118231,23.1039098 L149.118231,15.3858635 C149.118231,14.7859687 149.085709,14.411096 149.021095,14.2610344 C148.956122,14.1110431 148.825172,13.9798271 148.627885,13.8673161 C148.430598,13.754805 148.164174,13.6986198 147.82847,13.6986198 L147.430952,13.6986198 L147.430952,13.3784556 L153.817873,13.3784556 L153.817873,13.6986198 L153.296656,13.6986198 C152.949034,13.6986198 152.669472,13.7591648 152.457467,13.8802548 C152.304189,13.9611222 152.183577,14.0995811 152.095272,14.2956315 C152.030371,14.4340201 151.998064,14.7974308 151.998064,15.3858635 L151.998064,22.8616595 C151.998064,23.4616949 152.033458,23.8437402 152.104102,24.008147 C152.174746,24.1725537 152.31302,24.2951205 152.519281,24.3758471 C152.666385,24.4278132 153.022837,24.453761 153.588207,24.453761 L154.586417,24.453761 C155.222503,24.453761 155.752479,24.3442737 156.17656,24.1249475 C156.60057,23.9057619 156.967073,23.5596499 157.276285,23.0866113 C157.585498,22.6137133 157.878413,21.9157229 158.155319,20.9927105 L158.517515,20.9927105 Z" id="Fill-16" fill="#FFFFFF"></path>
                <path d="M159.803478,13.3784345 L165.987225,13.3784345 L165.987225,13.6985987 L165.678012,13.6985987 C165.212794,13.6985987 164.893243,13.7461347 164.719647,13.8413471 C164.545765,13.9364893 164.422065,14.0677756 164.348621,14.2350654 C164.274818,14.4024256 164.238132,14.8205448 164.238132,15.4896338 L164.238132,21.2350101 C164.238132,22.284949 164.318971,22.979986 164.481079,23.3202615 C164.642901,23.6606777 164.909468,23.9432211 165.280494,24.1681729 C165.651521,24.3931949 166.119755,24.5056356 166.685125,24.5056356 C167.332913,24.5056356 167.884929,24.3628873 168.341533,24.0773202 C168.797777,23.7918234 169.139368,23.3981051 169.366234,22.8963059 C169.592813,22.3944363 169.706318,21.5205068 169.706318,20.2745174 L169.706318,15.4896338 C169.706318,14.9648402 169.650319,14.5898268 169.538466,14.3648047 C169.42654,14.139853 169.28518,13.9840955 169.114384,13.8976026 C168.849396,13.7649803 168.475427,13.6985987 167.992475,13.6985987 L167.992475,13.3784345 L172.135578,13.3784345 L172.135578,13.6985987 L171.888251,13.6985987 C171.552547,13.6985987 171.272841,13.7649803 171.049062,13.8976026 C170.825212,14.0303657 170.663318,14.2293696 170.563167,14.4946143 C170.486636,14.6792731 170.448298,15.0108994 170.448298,15.4896338 L170.448298,19.9457742 C170.448298,21.3244563 170.355614,22.3195462 170.1701,22.930903 C169.984587,23.5424005 169.532579,24.1048151 168.814074,24.6181467 C168.09557,25.1314783 167.115021,25.3882848 165.872356,25.3882848 C164.83588,25.3882848 164.034886,25.2526386 163.469516,24.9815573 C162.698028,24.6124508 162.153263,24.1394122 161.835292,23.5625119 C161.517249,22.9857521 161.358227,22.2098479 161.358227,21.2350101 L161.358227,15.4896338 C161.358227,14.8147786 161.319962,14.3951124 161.24343,14.2307056 C161.166827,14.0662989 161.034369,13.9351532 160.845912,13.8369873 C160.657456,13.7390324 160.309978,13.6929029 159.803478,13.6985987 L159.803478,13.3784345 Z" id="Fill-18" fill="#FFFFFF"></path>
                <path d="M180.303187,18.2325334 L183.607101,23.0347155 C184.154738,23.8307311 184.544862,24.3139661 184.777615,24.4839984 C185.010152,24.6542416 185.285478,24.7565564 185.603521,24.7912238 L185.603521,25.1113177 L179.764309,25.1113177 L179.764309,24.7912238 C180.2296,24.7565564 180.52991,24.6873621 180.665383,24.5835003 C180.800857,24.4797089 180.868557,24.352923 180.868557,24.2027911 C180.868557,24.0989997 180.847953,24.0068109 180.806744,23.9259436 C180.724253,23.7528876 180.518136,23.4299106 180.188319,22.956872 L178.439226,20.4216467 L176.610586,22.6107599 C176.062877,23.2741531 175.789059,23.7240566 175.789059,23.9605408 C175.789059,24.1279009 175.859703,24.2836584 176.001064,24.4278132 C176.142424,24.5720383 176.351485,24.6758297 176.628247,24.7392578 C176.751947,24.7738549 177.00516,24.7912238 177.388033,24.7912238 L177.388033,25.1113177 L172.785527,25.1113177 L172.785527,24.7912238 C173.309687,24.7163337 173.721923,24.5778748 174.022305,24.3758471 C174.416879,24.1106024 174.967531,23.5568371 175.67419,22.7145513 L178.050538,19.8765307 L175.002854,15.4896549 C174.502241,14.7686701 174.216648,14.3677792 174.145932,14.2869823 C173.986911,14.0966276 173.830905,13.9611222 173.67777,13.8802548 C173.524636,13.7995985 173.312631,13.7389832 173.041684,13.6985495 L173.041684,13.3784556 L178.986935,13.3784556 L178.986935,13.6985495 L178.686553,13.6985495 C178.345033,13.6985495 178.106465,13.7519923 177.971064,13.8586668 C177.83559,13.965482 177.767889,14.0995811 177.767889,14.2609641 C177.767889,14.3879609 177.788494,14.4975889 177.829703,14.5897776 L178.439226,15.4896549 L179.923331,17.704716 L181.1866,16.1905284 C181.834389,15.4118114 182.158319,14.8666954 182.158319,14.5551804 C182.158319,14.399423 182.112587,14.2553385 182.021481,14.1225755 C181.930017,13.9899531 181.799066,13.8860914 181.628271,13.8110606 C181.457475,13.7361704 181.192487,13.6985495 180.833235,13.6985495 L180.833235,13.3784556 L185.241326,13.3784556 L185.241326,13.6985495 C184.893847,13.704386 184.614142,13.7461558 184.402137,13.8240696 C184.190132,13.9019132 183.963338,14.0476853 183.721898,14.2609641 C183.568764,14.399423 183.185964,14.8292151 182.573498,15.5501999 L180.303187,18.2325334 Z" id="Fill-20" fill="#FFFFFF"></path>
                <path d="M79.8888917,32.9633858 L79.8888917,35.7976092 L81.4976293,35.7976092 C81.9151056,35.7976092 82.1940214,35.7359391 82.3343767,35.6125285 C82.5215411,35.450372 82.6259281,35.1648752 82.6475378,34.7558976 L82.8472659,34.7558976 L82.8472659,37.2516737 L82.6475378,37.2516737 C82.5970673,36.9026786 82.5467404,36.6789222 82.4963417,36.5801938 C82.4315844,36.4568536 82.3254026,36.3598831 82.177868,36.2893528 C82.0302616,36.2188224 81.8034675,36.1835924 81.4976293,36.1835924 L79.8888917,36.1835924 L79.8888917,38.547168 C79.8888917,38.8644492 79.9032503,39.0574056 79.932111,39.1262483 C79.9609,39.19488 80.0112269,39.2495885 80.0832353,39.2900925 C80.1551719,39.3306668 80.2919376,39.3509188 80.4935323,39.3509188 L81.7351923,39.3509188 C82.1490072,39.3509188 82.4495327,39.322791 82.636697,39.2663245 C82.8237896,39.2099987 83.0038465,39.098894 83.1765804,38.9331512 C83.3997131,38.7145985 83.6281584,38.3851521 83.8622036,37.9443901 L84.078157,37.9443901 L83.4465221,39.7421759 L77.8050997,39.7421759 L77.8050997,39.5465473 L78.0642007,39.5465473 C78.2369347,39.5465473 78.4006945,39.5061137 78.5554802,39.4249651 C78.6706362,39.3686393 78.7488906,39.284045 78.7903151,39.1711121 C78.8316679,39.0583901 78.8523443,38.8274612 78.8523443,38.478466 L78.8523443,33.8200167 C78.8523443,33.3652612 78.805607,33.084968 78.711989,32.979278 C78.5824744,32.8382876 78.366521,32.7677572 78.0642007,32.7677572 L77.8050997,32.7677572 L77.8050997,32.5721287 L83.4465221,32.5721287 L83.5275046,34.1425015 L83.3169358,34.1425015 C83.2413377,33.7653082 83.1576989,33.5063219 83.0659474,33.3652612 C82.9741242,33.2243411 82.8382918,33.1167524 82.6583067,33.0427061 C82.5143618,32.9898259 82.2606453,32.9633858 81.8971573,32.9633858 L79.8888917,32.9633858 Z" id="Fill-22" fill="#FFFFFF"></path>
                <path d="M90.9792594,37.7593165 L91.1573778,37.7963045 L90.5311992,39.7421829 L84.8627827,39.7421829 L84.8627827,39.5465544 L85.1381089,39.5465544 C85.4476085,39.5465544 85.6689463,39.4478963 85.8021223,39.2504394 C85.8776486,39.1376471 85.9154835,38.8768324 85.9154835,38.4678548 L85.9154835,33.8411196 C85.9154835,33.3935366 85.865013,33.1132435 85.7642874,33.0003808 C85.6239321,32.8452562 85.4152298,32.7677643 85.1381089,32.7677643 L84.8627827,32.7677643 L84.8627827,32.5720654 L88.1774656,32.5720654 L88.1774656,32.7677643 C87.7887783,32.7642483 87.5161085,32.7994783 87.3595997,32.8735246 C87.2030192,32.9475007 87.095904,33.0409551 87.0383261,33.1537474 C86.9807481,33.2666101 86.9519591,33.5362147 86.9519591,33.9627721 L86.9519591,38.4678548 C86.9519591,38.7604538 86.9807481,38.9614267 87.0383261,39.0706327 C87.0815454,39.144679 87.1480976,39.1993875 87.238126,39.2345472 C87.3280108,39.2698475 87.6087215,39.2874274 88.0802579,39.2874274 L88.614685,39.2874274 C89.1761781,39.2874274 89.5702499,39.2469234 89.7969722,39.1658451 C90.0236945,39.0847669 90.2306737,38.9411043 90.4178381,38.7349279 C90.6049306,38.5286107 90.792095,38.2034538 90.9792594,37.7593165" id="Fill-24" fill="#FFFFFF"></path>
                <path d="M94.0150767,32.9633858 L94.0150767,35.7976092 L95.6238144,35.7976092 C96.0412189,35.7976092 96.3202783,35.7359391 96.4606336,35.6125285 C96.6477262,35.450372 96.752185,35.1648752 96.7737229,34.7558976 L96.973451,34.7558976 L96.973451,37.2516737 L96.7737229,37.2516737 C96.7232524,36.9026786 96.6729255,36.6789222 96.6225986,36.5801938 C96.5577695,36.4568536 96.4515159,36.3598831 96.3039813,36.2893528 C96.1565184,36.2188224 95.9297961,36.1835924 95.6238144,36.1835924 L94.0150767,36.1835924 L94.0150767,38.547168 C94.0150767,38.8644492 94.0294353,39.0574056 94.0582961,39.1262483 C94.0870851,39.19488 94.137412,39.2495885 94.2094204,39.2900925 C94.281357,39.3306668 94.4181227,39.3509188 94.6197174,39.3509188 L95.8613056,39.3509188 C96.2752641,39.3509188 96.5757178,39.322791 96.7629539,39.2663245 C96.9499747,39.2099987 97.1300316,39.098894 97.3028373,38.9331512 C97.5258982,38.7145985 97.7544871,38.3851521 97.9883169,37.9443901 L98.2042703,37.9443901 L97.5727072,39.7421759 L91.9312848,39.7421759 L91.9312848,39.5465473 L92.1903858,39.5465473 C92.3631198,39.5465473 92.5268796,39.5061137 92.6816653,39.4249651 C92.7968213,39.3686393 92.8750757,39.284045 92.9165002,39.1711121 C92.957853,39.0583901 92.9785294,38.8274612 92.9785294,38.478466 L92.9785294,33.8200167 C92.9785294,33.3652612 92.9317921,33.084968 92.8381741,32.979278 C92.7086595,32.8382876 92.4927061,32.7677572 92.1903858,32.7677572 L91.9312848,32.7677572 L91.9312848,32.5721287 L97.5727072,32.5721287 L97.6536179,34.1425015 L97.4431926,34.1425015 C97.3675946,33.7653082 97.283884,33.5063219 97.1919889,33.3652612 C97.1003093,33.2243411 96.9644769,33.1167524 96.7845636,33.0427061 C96.6405469,32.9898259 96.3867586,32.9633858 96.0232706,32.9633858 L94.0150767,32.9633858 Z" id="Fill-26" fill="#FFFFFF"></path>
                <path d="M105.423925,32.408179 L105.591347,34.845801 L105.423925,34.845801 C105.200865,34.1160966 104.882247,33.590881 104.468432,33.2700839 C104.054546,32.9493571 103.557882,32.7888882 102.97844,32.7888882 C102.492617,32.7888882 102.053459,32.9096969 101.661254,33.1511034 C101.268905,33.3925803 100.960267,33.7777196 100.73534,34.3064512 C100.510484,34.8352531 100.397984,35.4926691 100.397984,36.2787697 C100.397984,36.9273958 100.504166,37.4896697 100.716458,37.9655211 C100.92875,38.4414428 101.248301,38.8062599 101.674679,39.0601129 C102.101273,39.3138956 102.587958,39.4408221 103.134949,39.4408221 C103.610003,39.4408221 104.029275,39.3412499 104.392906,39.142035 C104.756322,38.9429608 105.15585,38.5472032 105.591347,37.9549732 L105.758624,38.0607336 C105.391547,38.6988118 104.963301,39.1658733 104.473817,39.4619883 C103.98426,39.7580329 103.403096,39.9061256 102.73018,39.9061256 C101.517237,39.9061256 100.577898,39.4654339 99.9121612,38.5841912 C99.4154254,37.9285331 99.1670934,37.1564964 99.1670934,36.2682218 C99.1670934,35.5525813 99.3307815,34.8952355 99.6583729,34.2959033 C99.9858926,33.6966413 100.436537,33.232252 101.010738,32.9025244 C101.584651,32.5730077 102.211906,32.408179 102.892073,32.408179 C103.421188,32.408179 103.942908,32.5351055 104.457663,32.7888882 C104.608788,32.8664505 104.716764,32.9051965 104.781593,32.9051965 C104.878729,32.9051965 104.963301,32.8717948 105.035238,32.8047804 C105.128784,32.7095679 105.195336,32.5773675 105.235038,32.408179 L105.423925,32.408179 Z" id="Fill-28" fill="#FFFFFF"></path>
                <path d="M112.848751,32.5720935 L112.929661,34.253571 L112.724549,34.253571 C112.684991,33.957456 112.631002,33.7459352 112.562584,33.619079 C112.450946,33.4146605 112.302621,33.2639661 112.117252,33.1669253 C111.931882,33.0700252 111.688001,33.0215751 111.385681,33.0215751 L110.354662,33.0215751 L110.354662,38.499597 C110.354662,38.9402886 110.403194,39.2152375 110.50033,39.3244435 C110.637024,39.4725362 110.847664,39.5465825 111.132036,39.5465825 L111.385681,39.5465825 L111.385681,39.7422111 L108.281639,39.7422111 L108.281639,39.5465825 L108.54074,39.5465825 C108.850239,39.5465825 109.069782,39.454886 109.199369,39.2715633 C109.278485,39.158771 109.318114,38.9014723 109.318114,38.499597 L109.318114,33.0215751 L108.438076,33.0215751 C108.096269,33.0215751 107.85325,33.0461869 107.709377,33.0955511 C107.522212,33.1624952 107.362042,33.29125 107.228866,33.4816046 C107.095618,33.6719592 107.016574,33.9293282 106.991303,34.253571 L106.78619,34.253571 L106.872557,32.5720935 L112.848751,32.5720935 Z" id="Fill-30" fill="#FFFFFF"></path>
                <path d="M115.787367,36.0566799 C115.855786,36.0566799 115.915087,36.0575941 115.965558,36.0593521 C116.015956,36.0611804 116.057309,36.0619539 116.089688,36.0619539 C116.787803,36.0619539 117.314189,35.9139315 117.668847,35.6178166 C118.023145,35.3217016 118.200546,34.9445786 118.200546,34.4862368 C118.200546,34.0386538 118.057534,33.67454 117.771367,33.3943875 C117.485272,33.114024 117.10642,32.9739478 116.635027,32.9739478 C116.426182,32.9739478 116.143676,33.0074901 115.787367,33.0744342 L115.787367,36.0566799 Z M120.986186,39.74219 L119.031909,39.74219 L116.553973,36.3897829 C116.370398,36.3969555 116.221069,36.4004012 116.105913,36.4004012 C116.059104,36.4004012 116.008777,36.3995573 115.954789,36.3977993 C115.9008,36.395971 115.845017,36.3933692 115.787367,36.3897829 L115.787367,38.4731358 C115.787367,38.9244457 115.837694,39.2046685 115.938492,39.3138745 C116.075257,39.4689991 116.28037,39.5465614 116.553973,39.5465614 L116.84014,39.5465614 L116.84014,39.74219 L113.703504,39.74219 L113.703504,39.5465614 L113.978902,39.5465614 C114.288401,39.5465614 114.509667,39.4479033 114.642915,39.2504464 C114.718441,39.1411701 114.756348,38.8821837 114.756348,38.4731358 L114.756348,33.8411266 C114.756348,33.3899573 114.705806,33.1096642 114.605152,33.0003879 C114.464797,32.8452633 114.256023,32.7677713 113.978902,32.7677713 L113.703504,32.7677713 L113.703504,32.5720724 L116.370398,32.5720724 C117.147773,32.5720724 117.720897,32.6275544 118.089913,32.7387294 C118.458713,32.8496934 118.771803,33.0541822 119.029252,33.3520552 C119.286415,33.6499282 119.41514,34.0050411 119.41514,34.4174644 C119.41514,34.8581561 119.268467,35.2406936 118.975264,35.5649364 C118.681774,35.8893198 118.227468,36.1184204 117.612058,36.2523085 L119.12366,38.3092213 C119.469128,38.781627 119.766136,39.0953218 120.014468,39.2504464 C120.2628,39.405571 120.586658,39.5042291 120.986186,39.5465614 L120.986186,39.74219 Z" id="Fill-32" fill="#FFFFFF"></path>
                <path d="M125.139375,32.7941762 C124.484408,32.7941762 123.958883,33.0321371 123.563016,33.5079885 C123.070014,34.1002184 122.823477,34.9673973 122.823477,36.109525 C122.823477,37.279921 123.078988,38.1806422 123.590082,38.8115479 C123.982287,39.2910559 124.500561,39.5307044 125.144832,39.5307044 C125.832178,39.5307044 126.399989,39.2680614 126.847977,38.7428458 C127.296109,38.2175599 127.520175,37.3891974 127.520175,36.2576176 C127.520175,35.0308957 127.273566,34.1161106 126.780492,33.5133327 C126.384697,33.0339654 125.837562,32.7941762 125.139375,32.7941762 M125.242039,32.408193 C126.192148,32.408193 127.015398,32.7616184 127.711719,33.4683986 C128.408182,34.1751789 128.756379,35.0573358 128.756379,36.1148692 C128.756379,37.2041167 128.405526,38.1082836 127.70375,38.8274401 C127.001901,39.5465262 126.152446,39.9061397 125.155672,39.9061397 C124.147842,39.9061397 123.301187,39.5553865 122.615564,38.8538802 C121.930013,38.1524442 121.587129,37.2446207 121.587129,36.1306911 C121.587129,34.9920794 121.982996,34.0632304 122.774801,33.3440739 C123.462219,32.7201299 124.284608,32.408193 125.242039,32.408193" id="Fill-34" fill="#FFFFFF"></path>
                <path d="M129.346704,32.5720935 L131.33336,32.5720935 L135.808792,37.9496993 L135.808792,33.8147076 C135.808792,33.3740159 135.758321,33.0990671 135.657596,32.9897907 C135.52442,32.8417684 135.313779,32.7677221 135.025889,32.7677221 L134.772244,32.7677221 L134.772244,32.5720935 L137.320322,32.5720935 L137.320322,32.7677221 L137.061221,32.7677221 C136.751578,32.7677221 136.532178,32.8594186 136.402592,33.0426709 C136.323404,33.1555336 136.283846,33.4128322 136.283846,33.8147076 L136.283846,39.8585194 L136.089503,39.8585194 L131.263218,34.0843825 L131.263218,38.499597 C131.263218,38.9402886 131.31175,39.2152375 131.408958,39.3244435 C131.545652,39.4725362 131.756292,39.5465825 132.040593,39.5465825 L132.299765,39.5465825 L132.299765,39.7422111 L129.751688,39.7422111 L129.751688,39.5465825 L130.005333,39.5465825 C130.318422,39.5465825 130.539832,39.454886 130.669418,39.2715633 C130.748462,39.158771 130.788164,38.9014723 130.788164,38.499597 L130.788164,33.5133187 C130.575728,33.2700839 130.414768,33.1096853 130.304997,33.032123 C130.195153,32.9545607 130.03405,32.8823427 129.821758,32.8153283 C129.717443,32.7836143 129.558996,32.7677221 129.346704,32.7677221 L129.346704,32.5720935 Z" id="Fill-36" fill="#FFFFFF"></path>
                <path d="M141.198293,39.5465544 L141.198293,39.7421829 L138.061728,39.7421829 L138.061728,39.5465544 L138.320829,39.5465544 C138.623149,39.5465544 138.842692,39.4602022 138.979458,39.2874274 C139.065825,39.1747054 139.109044,38.9033428 139.109044,38.4731287 L139.109044,33.8411196 C139.109044,33.4781308 139.085568,33.2383417 139.038903,33.1220334 C139.002863,33.0339935 138.929131,32.9581189 138.817493,32.8946205 C138.659189,32.8100262 138.493563,32.7677643 138.320829,32.7677643 L138.061728,32.7677643 L138.061728,32.5720654 L141.198293,32.5720654 L141.198293,32.7677643 L140.933664,32.7677643 C140.635005,32.7677643 140.417257,32.8541868 140.280563,33.0268209 C140.190534,33.1397539 140.14552,33.4111165 140.14552,33.8411196 L140.14552,38.4731287 C140.14552,38.8362581 140.168925,39.075977 140.215734,39.1922852 C140.25163,39.2804658 140.327228,39.3561998 140.442528,39.4196279 C140.59717,39.5042221 140.76093,39.5465544 140.933664,39.5465544 L141.198293,39.5465544 Z" id="Fill-38" fill="#FFFFFF"></path>
                <path d="M148.434101,32.408179 L148.601522,34.845801 L148.434101,34.845801 C148.21104,34.1160966 147.892423,33.590881 147.478608,33.2700839 C147.064721,32.9493571 146.568057,32.7888882 145.988616,32.7888882 C145.502793,32.7888882 145.063635,32.9096969 144.67143,33.1511034 C144.279081,33.3925803 143.970443,33.7777196 143.745516,34.3064512 C143.52066,34.8352531 143.40816,35.4926691 143.40816,36.2787697 C143.40816,36.9273958 143.514342,37.4896697 143.726634,37.9655211 C143.938926,38.4414428 144.258477,38.8062599 144.684855,39.0601129 C145.111449,39.3138956 145.598134,39.4408221 146.145125,39.4408221 C146.620179,39.4408221 147.03945,39.3412499 147.403082,39.142035 C147.766498,38.9429608 148.166026,38.5472032 148.601522,37.9549732 L148.7688,38.0607336 C148.401723,38.6988118 147.973477,39.1658733 147.483993,39.4619883 C146.994436,39.7580329 146.413272,39.9061256 145.740356,39.9061256 C144.527413,39.9061256 143.588073,39.4654339 142.922337,38.5841912 C142.425673,37.9285331 142.177341,37.1564964 142.177341,36.2682218 C142.177341,35.5525813 142.340957,34.8952355 142.668477,34.2959033 C142.996068,33.6966413 143.446713,33.232252 144.020913,32.9025244 C144.594827,32.5730077 145.222082,32.408179 145.902249,32.408179 C146.431364,32.408179 146.953083,32.5351055 147.467839,32.7888882 C147.618963,32.8664505 147.72694,32.9051965 147.791769,32.9051965 C147.888905,32.9051965 147.973477,32.8717948 148.045414,32.8047804 C148.13896,32.7095679 148.205512,32.5773675 148.245214,32.408179 L148.434101,32.408179 Z" id="Fill-40" fill="#FFFFFF"></path>
                <path d="M154.530899,32.408179 L154.530899,34.8881332 L154.331099,34.8881332 C154.26627,34.4122116 154.150181,34.0332603 153.982903,33.7512795 C153.815482,33.4692284 153.577129,33.2454721 153.26763,33.0797293 C152.958058,32.9140567 152.63779,32.8312205 152.306752,32.8312205 C151.932352,32.8312205 151.622852,32.9430987 151.378181,33.1669253 C151.133367,33.3908926 151.011104,33.6455191 151.011104,33.9310159 C151.011104,34.1496389 151.088353,34.3487835 151.243139,34.5285198 C151.4662,34.7929208 151.997109,35.1455022 152.835795,35.5860533 C153.51948,35.9456667 153.986421,36.2215297 154.236548,36.413572 C154.486747,36.6057549 154.679224,36.8321834 154.814266,37.0930683 C154.949165,37.3539533 155.016794,37.6271442 155.016794,37.9126409 C155.016794,38.455577 154.801631,38.9234823 154.371591,39.3165677 C153.941551,39.7096532 153.388098,39.9061256 152.711521,39.9061256 C152.499229,39.9061256 152.299429,39.8902334 152.112337,39.8585194 C152.00077,39.8407989 151.769525,39.7765269 151.418529,39.6655629 C151.067749,39.5544583 150.845477,39.4989763 150.751931,39.4989763 C150.661903,39.4989763 150.590828,39.5254164 150.538706,39.5782966 C150.486512,39.6311767 150.447816,39.7404531 150.422545,39.9061256 L150.222888,39.9061256 L150.222888,37.4473375 L150.422545,37.4473375 C150.516091,37.9620755 150.64216,38.3471445 150.800463,38.6026852 C150.958767,38.8583665 151.200781,39.0706608 151.526506,39.2398493 C151.852231,39.4091081 152.209544,39.4937023 152.598232,39.4937023 C153.048087,39.4937023 153.40339,39.3773237 153.664358,39.1447071 C153.925254,38.9120202 154.055845,38.6370714 154.055845,38.3197903 C154.055845,38.1435698 154.006308,37.9655211 153.907305,37.7857847 C153.808375,37.605978 153.654522,37.4385475 153.445748,37.283423 C153.305393,37.1776626 152.922162,36.9529218 152.295911,36.6092709 C151.669661,36.2655496 151.224185,35.9915149 150.959772,35.7870261 C150.695143,35.582678 150.494481,35.357023 150.357787,35.1102019 C150.221094,34.8635215 150.152675,34.5920183 150.152675,34.2959033 C150.152675,33.7812356 150.354126,33.3380124 150.757244,32.9660228 C151.160433,32.5941738 151.673179,32.408179 152.295911,32.408179 C152.684599,32.408179 153.096547,32.5016335 153.532115,32.6884018 C153.733638,32.7765823 153.875788,32.8206023 153.958637,32.8206023 C154.052184,32.8206023 154.128571,32.7933887 154.188088,32.7386802 C154.247389,32.684042 154.295059,32.5738515 154.331099,32.408179 L154.530899,32.408179 Z" id="Fill-42" fill="#FFFFFF"></path>
                <path d="M193.44537,15.9167679 C193.765208,15.9167679 193.99911,15.8862493 194.14686,15.8251418 C194.294538,15.7641045 194.407684,15.6784555 194.486369,15.568265 C194.565054,15.4580745 194.604325,15.3326247 194.604325,15.1918453 C194.604325,14.9768085 194.527722,14.7962283 194.374587,14.6501749 C194.221381,14.5041918 194.025458,14.43113 193.786962,14.43113 C193.683867,14.43113 193.570003,14.4524368 193.44537,14.4948394 L193.44537,15.9167679 Z M192.481621,14.255894 L194.051232,14.255894 C194.444298,14.255894 194.743962,14.3428791 194.949936,14.516779 C195.155911,14.6906789 195.259005,14.9011449 195.259005,15.1480363 C195.259005,15.3498529 195.189151,15.5271281 195.049657,15.6797916 C194.909948,15.8325253 194.678918,15.950029 194.35628,16.0323027 L195.206094,17.2191535 C195.309189,17.359933 195.401299,17.4568331 195.482641,17.5099243 C195.534116,17.5417789 195.606053,17.5617497 195.698163,17.5696957 L195.698163,17.7011227 L194.949936,17.7011227 L193.754439,16.0879957 L193.44537,16.0879957 L193.44537,17.3187258 C193.461667,17.4064141 193.500364,17.4701235 193.561316,17.5099243 C193.62234,17.5497954 193.743599,17.5696957 193.925235,17.5696957 L193.925235,17.7011227 L192.432802,17.7011227 L192.432802,17.5696957 C192.562963,17.5696957 192.655073,17.5544364 192.709349,17.5238475 C192.763624,17.4933992 192.802895,17.448887 192.827305,17.3904516 C192.846186,17.3479787 192.855735,17.2245681 192.855735,17.020009 L192.855735,14.9369374 C192.855735,14.740465 192.851642,14.6250006 192.84353,14.5904737 C192.824648,14.5293662 192.789972,14.4823225 192.739932,14.4490614 C192.689749,14.4158707 192.603598,14.3992753 192.481621,14.3992753 L192.481621,14.255894 Z M194.075641,13.4114987 C193.633827,13.4114987 193.202782,13.5230253 192.782577,13.7460784 C192.362301,13.9691315 192.034351,14.2871159 191.798511,14.6999611 C191.562599,15.1128766 191.444715,15.5437235 191.444715,15.9924316 C191.444715,16.4385379 191.560661,16.8660798 191.79248,17.2749168 C192.024228,17.6838945 192.348876,18.0025116 192.76628,18.2308387 C193.183685,18.4592361 193.620258,18.5733645 194.075641,18.5733645 C194.531096,18.5733645 194.968315,18.4592361 195.387156,18.2308387 C195.805996,18.0025116 196.13129,17.6838945 196.36311,17.2749168 C196.594858,16.8660798 196.71066,16.4385379 196.71066,15.9924316 C196.71066,15.5437235 196.592776,15.1128766 196.356936,14.6999611 C196.121096,14.2871159 195.793073,13.9691315 195.372869,13.7460784 C194.952593,13.5230253 194.520327,13.4114987 194.075641,13.4114987 L194.075641,13.4114987 Z M194.075641,13.1685452 C194.560962,13.1685452 195.033934,13.2899868 195.494845,13.5330106 C195.955756,13.7759641 196.315583,14.1238342 196.57454,14.5764802 C196.833354,15.0292668 196.962797,15.5012506 196.962797,15.9924316 C196.962797,16.4810108 196.835364,16.9496896 196.580571,17.3983977 C196.325778,17.8471761 195.969182,18.195679 195.511071,18.4439065 C195.053031,18.6922746 194.574459,18.8163181 194.075641,18.8163181 C193.576895,18.8163181 193.099041,18.6922746 192.642294,18.4439065 C192.185475,18.195679 191.829597,17.8471761 191.574804,17.3983977 C191.32001,16.9496896 191.192578,16.4810108 191.192578,15.9924316 C191.192578,15.5012506 191.322021,15.0292668 191.580978,14.5764802 C191.839864,14.1238342 192.199618,13.7759641 192.660529,13.5330106 C193.12144,13.2899868 193.593192,13.1685452 194.075641,13.1685452 L194.075641,13.1685452 Z" id="Fill-44" fill="#FFFFFF"></path>
            </g>
        </g>
    </g>
</svg>
