<?xml version="1.0" encoding="UTF-8"?>
<svg width="320px" height="276px" viewBox="0 0 320 276" version="1.1" xmlns="http://www.w3.org/2000/svg" xmlns:xlink="http://www.w3.org/1999/xlink">
    <!-- Generator: Sketch 43.2 (39069) - http://www.bohemiancoding.com/sketch -->
    <title>Group 2</title>
    <desc>Created with Sketch.</desc>
    <defs>
        <path d="M0,160 C0,71.63444 71.63444,0 160,0 C248.36556,0 320,71.63444 320,160 C320,180.279523 316.22471,200.039586 308.961352,218.515396 C308.548184,219.566371 307.361262,220.083416 306.310287,219.670248 L262.54224,202.463803 C261.491265,202.050635 260.97422,200.863713 261.387388,199.812738 C266.345157,187.201656 268.881789,173.778082 268.881789,160 C268.881789,99.8662483 220.133752,51.1182109 160,51.1182109 C99.8662483,51.1182109 51.1182109,99.8662483 51.1182109,160 C51.1182109,173.777564 53.6546517,187.200648 58.6120564,199.811323 C59.0252093,200.862304 58.5081476,202.049219 57.4571668,202.462372 L13.6888773,219.6682 C12.6378965,220.081353 11.4509816,219.564292 11.0378287,218.513311 C3.77500382,200.038094 0,180.278756 0,160 Z" id="path-1"></path>
    </defs>
    <g id="LMPA-Q-final" stroke="none" stroke-width="1" fill="none" fill-rule="evenodd">
        <g id="Artboard" transform="translate(-669.000000, -475.000000)">
            <g id="Group-2" transform="translate(669.000000, 475.000000)">
                <g id="Temp-marks" transform="translate(15.000000, 66.000000)" font-size="12" font-family="Lato-Regular, Lato" fill="#C4C4C4" font-weight="normal">
                    <text id="50ºC">
                        <tspan x="48.782" y="80">50ºC</tspan>
                    </text>
                    <text id="100ºC">
                        <tspan x="66.302" y="36">100ºC</tspan>
                    </text>
                    <text id="350ºC">
                        <tspan x="205.302" y="129">350ºC</tspan>
                    </text>
                    <text id="150ºC">
                        <tspan x="102.302" y="12">150ºC</tspan>
                    </text>
                    <text id="200ºC">
                        <tspan x="154.302" y="12">200ºC</tspan>
                    </text>
                    <text id="250ºC">
                        <tspan x="188.302" y="36">250ºC</tspan>
                    </text>
                    <text id="300ºC">
                        <tspan x="208.302" y="80">300ºC</tspan>
                    </text>
                    <text id="0ºC">
                        <tspan x="55.262" y="129">0ºC</tspan>
                    </text>
                </g>
                <text id="200ºC---250ºC" font-family="Lato-Regular, Lato" font-size="16" font-weight="normal" fill="#596979">
                    <tspan x="109.608" y="275">200ºC - 250ºC</tspan>
                </text>
                <text id="LMPA-Q" font-family="Lato-Black, Lato" font-size="20" font-weight="700" fill="#23578C">
                    <tspan x="121.22" y="245">LMPA-Q</tspan>
                </text>
                <mask id="mask-2" fill="white">
                    <use xlink:href="#path-1"></use>
                </mask>
                <use id="Mask" fill="#B6D92E" fill-rule="nonzero" xlink:href="#path-1"></use>
                <rect id="Background-colours" fill="" mask="url(#mask-2)" x="0" y="0" width="320" height="320"></rect>
                <g id="50-marks" opacity="0.503396739" mask="url(#mask-2)" fill-rule="nonzero" fill="#FFFFFF">
                    <g transform="translate(2.000000, 4.000000)" id="Line">
                        <polygon transform="translate(42.800859, 197.929058) rotate(-20.000000) translate(-42.800859, -197.929058) " points="4.89322428 198.429058 80.7084933 198.429058 80.5911207 197.429058 4.89322428 197.429058"></polygon>
                        <polygon transform="translate(38.268903, 132.726632) rotate(11.000000) translate(-38.268903, -132.726632) " points="-0.259029587 133.226632 76.7968363 133.226632 76.6116976 132.226632 -0.259029587 132.226632"></polygon>
                        <polygon transform="translate(64.163912, 68.496432) rotate(43.000000) translate(-64.163912, -68.496432) " points="31.9685721 68.9964319 96.3592511 68.9964319 96.0887361 67.9964319 31.9685721 67.9964319"></polygon>
                        <polygon transform="translate(123.843254, 36.881270) rotate(74.000000) translate(-123.843254, -36.881270) " points="87.2624012 37.3812704 160.424107 37.3812704 158.949785 36.3812704 87.2624012 36.3812704"></polygon>
                        <polygon transform="translate(190.819004, 33.517810) rotate(105.000000) translate(-190.819004, -33.517810) " points="157.121897 34.0178102 223.518136 34.0178102 224.51611 33.0178102 157.121897 33.0178102"></polygon>
                        <polygon transform="translate(248.959715, 71.178694) rotate(137.000000) translate(-248.959715, -71.178694) " points="212.83143 71.6786939 284.561367 71.6786939 285.087999 70.6786939 212.83143 70.6786939"></polygon>
                        <polygon transform="translate(283.642467, 129.293869) rotate(168.000000) translate(-283.642467, -129.293869) " points="251.591861 129.793869 315.22456 129.793869 315.693073 128.793869 251.591861 128.793869"></polygon>
                        <polygon transform="translate(275.990268, 198.944946) rotate(20.000000) translate(-275.990268, -198.944946) " points="241.052889 199.444946 310.927647 199.444946 310.927647 198.444946 241.260288 198.444946"></polygon>
                    </g>
                </g>
            </g>
        </g>
    </g>
</svg>